<svg width="512" height="512" viewBox="0 0 512 512" fill="none" xmlns="http://www.w3.org/2000/svg"><defs><linearGradient id="bgGradient" x1="0%" y1="0%" x2="100%" y2="100%"><stop offset="0%" style="stop-color:#6366F1"/><stop offset="50%" style="stop-color:#8B5CF6"/><stop offset="100%" style="stop-color:#A855F7"/></linearGradient><linearGradient id="iconGradient" x1="0%" y1="0%" x2="100%" y2="100%"><stop offset="0%" style="stop-color:#FFFFFF"/><stop offset="100%" style="stop-color:#E0E7FF"/></linearGradient></defs><rect width="512" height="512" rx="96" fill="url(#bgGradient)"/><rect x="80" y="120" width="160" height="200" rx="16" fill="url(#iconGradient)" opacity="0.95"/><rect x="104" y="152" width="112" height="12" rx="6" fill="#6366F1" opacity="0.6"/><rect x="104" y="176" width="96" height="12" rx="6" fill="#6366F1" opacity="0.6"/><rect x="104" y="200" width="104" height="12" rx="6" fill="#6366F1" opacity="0.6"/><rect x="104" y="224" width="80" height="12" rx="6" fill="#6366F1" opacity="0.6"/><rect x="272" y="192" width="160" height="200" rx="16" fill="url(#iconGradient)" opacity="0.95"/><rect x="296" y="224" width="112" height="12" rx="6" fill="#8B5CF6" opacity="0.6"/><rect x="296" y="248" width="96" height="12" rx="6" fill="#8B5CF6" opacity="0.6"/><rect x="296" y="272" width="104" height="12" rx="6" fill="#8B5CF6" opacity="0.6"/><rect x="296" y="296" width="80" height="12" rx="6" fill="#8B5CF6" opacity="0.6"/><circle cx="256" cy="256" r="40" fill="white" opacity="0.95"/><path d="M244 248 L268 248 L268 240 L284 256 L268 272 L268 264 L244 264 Z" fill="#6366F1"/><path d="M400 116 L406 134 L424 140 L406 146 L400 164 L394 146 L376 140 L394 134 Z" fill="white" opacity="0.9"/><path d="M112 344 L116 356 L128 360 L116 364 L112 376 L108 364 L96 360 L108 356 Z" fill="white" opacity="0.7"/></svg>